<svg width="40" height="40" viewBox="0 0 40 40" fill="none" xmlns="http://www.w3.org/2000/svg">
<g style="mix-blend-mode:luminosity">
<path d="M28.5202 14.65V29.05C28.5202 29.63 28.0502 30.1 27.4702 30.1H17.2902C16.7102 30.1 16.2402 29.63 16.2402 29.05V28.16L25.3402 24.72C25.7002 24.58 25.9402 24.24 25.9402 23.85V13.6H27.4702C28.0502 13.6 28.5202 14.07 28.5202 14.65Z" fill="url(#paint0_linear_14900_1464)"/>
<path d="M25.9402 13.6V23.86C25.9402 24.25 25.7002 24.59 25.3402 24.73L16.2402 28.17V14.65C16.2402 14.07 16.7102 13.6 17.2902 13.6H25.9402Z" fill="url(#paint1_linear_14900_1464)"/>
<path d="M25.94 10.93V13.6H17.29C16.71 13.6 16.24 14.07 16.24 14.65V28.17L12.74 29.49C12.13 29.72 11.48 29.27 11.48 28.62V10.92C11.48 10.41 11.9 9.98999 12.41 9.98999H25.01C25.52 9.99999 25.94 10.42 25.94 10.93Z" fill="url(#paint2_linear_14900_1464)"/>
</g>
<defs>
<linearGradient id="paint0_linear_14900_1464" x1="16.2422" y1="21.8522" x2="28.5182" y2="21.8522" gradientUnits="userSpaceOnUse">
<stop stop-color="#FCFF1C"/>
<stop offset="1" stop-color="#FF9D0A"/>
</linearGradient>
<linearGradient id="paint1_linear_14900_1464" x1="16.2422" y1="20.8857" x2="25.9372" y2="20.8857" gradientUnits="userSpaceOnUse">
<stop stop-color="#FFDDCD"/>
<stop offset="1" stop-color="#FF5403"/>
</linearGradient>
<linearGradient id="paint2_linear_14900_1464" x1="11.482" y1="19.7778" x2="25.937" y2="19.7778" gradientUnits="userSpaceOnUse">
<stop stop-color="#E7CFFF"/>
<stop offset="1" stop-color="#870FFF"/>
</linearGradient>
</defs>
</svg>
